<svg id="Ebene_1" data-name="Ebene 1" xmlns="http://www.w3.org/2000/svg" xmlns:xlink="http://www.w3.org/1999/xlink" viewBox="0 0 90.605 90.275"><defs><style>.cls-1{fill:url(#Unbenannter_Verlauf_39);}.cls-2{fill:url(#Unbenannter_Verlauf_3);}.cls-3{fill:url(#Unbenannter_Verlauf_29);}</style><linearGradient id="Unbenannter_Verlauf_39" x1="139.5901" y1="92.2418" x2="169.4008" y2="124.0171" gradientUnits="userSpaceOnUse"><stop offset="0" stop-color="#cdd500"/><stop offset="1" stop-color="#00853c"/></linearGradient><linearGradient id="Unbenannter_Verlauf_3" x1="93.3735" y1="139.967" x2="107.6089" y2="105.658" gradientUnits="userSpaceOnUse"><stop offset="0" stop-color="#f9b936"/><stop offset="0.2395" stop-color="#f18933"/><stop offset="0.4667" stop-color="#eb6330"/><stop offset="0.6757" stop-color="#e7472e"/><stop offset="0.86" stop-color="#e4372d"/><stop offset="1" stop-color="#e3312d"/></linearGradient><linearGradient id="Unbenannter_Verlauf_29" x1="180.9914" y1="151.8681" x2="105.3518" y2="151.6356" gradientUnits="userSpaceOnUse"><stop offset="0" stop-color="#41bdee"/><stop offset="1" stop-color="#914795"/></linearGradient></defs><title>LogoColor</title><path class="cls-1" d="M172.8,101.425h-8.87a44.7161,44.7161,0,0,1,6.32,12.52h.01c.08.25.15.5.23.75.07.25.15.5.22.76.19.64.36,1.28.51,1.93.1.39.19.79.26,1.19.05.2.09.39.13.6.03.13.05.26.07.39.08.36.14.71.19,1.07.04.23.07.45.1.68.05.37.1.72.15,1.09.04.35.08.71.11,1.06.07.72.12,1.44.16,2.17.02.36.03.71.04,1.08.01.62.01,1.23,0,1.85,0,.2-.01.4-.01.59l-.03.75a1.0284,1.0284,0,0,0-.01.17c-.01.18-.02.37-.03.55H153.17a25.352,25.352,0,0,0,.12-4.09c-.01-.4-.04-.82-.09-1.23a21.0059,21.0059,0,0,0-.36-2.47c-.07-.39-.16-.78-.25-1.18q-.18-.765-.42-1.5a25.3333,25.3333,0,0,0-4.15-8.08l.01,14.13H129.24l-.01-24.78V82.645H172.8Z" transform="translate(-82.195 -82.645)"/><path class="cls-2" d="M109.9,147.085c.12.11.23.22.35.32l-13.54,13.54c-.19-.17-.38-.34-.56-.52-.25-.23-.49-.47-.74-.72-.28-.28-.55-.55-.81-.83-.26-.29-.52-.55-.77-.84-.01-.01-.02-.01-.03-.02-.77-.86-1.5-1.74-2.2-2.63-.46-.61-.91-1.21-1.34-1.83l-.57-.84c-.24-.37-.47-.72-.7-1.08-.29-.46-.56-.92-.82-1.39-.3-.51-.58-1.03-.85-1.54-.13-.24-.25-.47-.36-.71-.23-.46-.45-.91-.65-1.36-.23-.48-.44-.98-.64-1.48a.01.01,0,0,1-.01-.01c-.24-.56-.45-1.12-.66-1.68a.336.336,0,0,1-.05-.14c-.2-.55-.39-1.09-.57-1.64q-.51-1.575-.9-3.18c-.05-.22-.1-.42-.15-.63-.07-.31-.14-.62-.2-.94-.09-.43-.17-.85-.24-1.28a3.3915,3.3915,0,0,1-.08-.44c-.05-.31-.1-.63-.15-.94a45.3138,45.3138,0,0,1,0-12.95c.06-.36.11-.71.17-1.07.11-.67.24-1.33.38-1.99.03-.13.06-.26.09-.38.06-.29.12-.55.19-.82.09-.38.18-.74.28-1.11.08-.3.17-.59.26-.88.1-.39.22-.79.35-1.17.18-.56.37-1.1.57-1.64.4-1.11.85-2.18,1.33-3.24.24-.52.5-1.06.76-1.57.52-1.03,1.09-2.05,1.69-3.05.29-.48.6-.96.9-1.44l.03-.03c.33-.49.66-.97,1-1.44.3-.43.62-.86.94-1.28.27-.35.55-.7.83-1.04.21-.25.41-.49.62-.73.52-.61,1.07-1.23,1.64-1.81.23-.25.47-.49.72-.74a44.9074,44.9074,0,0,1,18.06-11.05l5.87,18.21a25.9311,25.9311,0,0,0-10.54,6.48c-.25.24-.48.49-.7.74a9.1931,9.1931,0,0,0-.66.76c-.23.27-.44.52-.63.79-.02.01-.03.01-.02.02a8.5267,8.5267,0,0,0-.59.79,19.4778,19.4778,0,0,0-1.11,1.68,9.3361,9.3361,0,0,0-.5.87,23.6464,23.6464,0,0,0-2,4.6c-.12.33-.21.65-.3.98-.16.55-.29,1.1-.4,1.66a3.1483,3.1483,0,0,0-.09.42c-.08.37-.14.74-.19,1.12a1.1777,1.1777,0,0,0-.04.25c-.04.31-.08.62-.11.93a1.3576,1.3576,0,0,0-.03.29c-.03.3-.05.59-.06.9a19.7128,19.7128,0,0,0-.02,2.55c0,.2.01.39.03.61.01.32.04.63.08.95.03.29.06.58.11.89a13.9841,13.9841,0,0,0,.23,1.42c.05.26.1.51.16.77.02.09.04.17.06.25.08.35.16.68.26,1,.08.31.17.63.28.94a.48.48,0,0,0,.05.17c.09.27.18.55.29.82a.9283.9283,0,0,0,.1.26,6.6531,6.6531,0,0,0,.32.82,22.6428,22.6428,0,0,0,1.7,3.37c.18.31.37.62.57.92,0,.01.01.01.02.02a11.7367,11.7367,0,0,0,.74,1.06c.25.37.52.71.8,1.05.27.35.56.68.86,1,.29.33.6.66.92.97C109.24,146.495,109.57,146.805,109.9,147.085Z" transform="translate(-82.195 -82.645)"/><path class="cls-3" d="M172.35,130.625q-.045.75-.12,1.5c-.07.71-.16,1.43-.26,2.15-.04.29-.08.57-.13.87-.05.32-.11.66-.18.98a2.7411,2.7411,0,0,1-.05.28c-.04.25-.09.5-.15.74-.08.38-.17.79-.26,1.18-.14.56-.28,1.13-.44,1.68q-.48,1.695-1.08,3.33c-.18.48-.36.95-.55,1.44a1.5385,1.5385,0,0,1-.08.19,45.3582,45.3582,0,0,1-3.15,6.22c-.27.46-.56.9-.86,1.35a1.852,1.852,0,0,1-.21.33c-.22.34-.45.66-.69,1-.14.2-.28.4-.43.6-.22.31-.45.61-.68.91-.23.28-.46.58-.7.87,0,.01-.01.02-.02.03-.24.3-.48.59-.73.87-.25.29-.5.57-.76.87-.26.27-.52.57-.79.85-.26.28-.53.54-.81.83a45.4007,45.4007,0,0,1-7.08,5.79,45.9679,45.9679,0,0,1-4.33,2.52c-.47.24-.96.48-1.44.7-.02.01-.04.01-.06.03-.54.25-1.08.48-1.63.71-.57.24-1.15.46-1.73.68-.58.21-1.17.41-1.77.61-.58.19-1.15.35-1.73.52-.58.15-1.16.31-1.74.45-.42.1-.85.2-1.27.28-.36.08-.73.15-1.1.21-.33.07-.66.12-.99.17l-.18.03c-.45.07-.89.13-1.34.18a.4869.4869,0,0,1-.12.01c-.36.05-.71.09-1.07.12-.72.07-1.44.12-2.17.16-.16.01-.31.02-.47.02-.2.01-.41.01-.61.02-.61.02-1.23.02-1.84,0-.21,0-.41,0-.61-.01l-.72-.03a.9737.9737,0,0,1-.24-.02c-.67-.02-1.33-.07-2-.14-.35-.03-.71-.07-1.07-.12-.52-.06-1.04-.12-1.56-.21a.5222.5222,0,0,1-.21-.04c-.41-.06-.81-.12-1.21-.21-.21-.04-.43-.07-.65-.12-.5-.1-.99-.22-1.48-.33-.57-.14-1.14-.28-1.7-.44a45.6739,45.6739,0,0,1-12.66-5.79c-.48-.32-.96-.66-1.44-.99-.54-.39-1.08-.8-1.6-1.2-.33-.26-.66-.54-.98-.8-.59-.49-1.15-.99-1.71-1.51l13.54-13.54c.19.17.37.33.57.48.08.07.15.13.23.19.23.19.46.37.7.54a25.8424,25.8424,0,0,0,2.17,1.47,5.6979,5.6979,0,0,0,.59.32,14.4578,14.4578,0,0,0,1.39.75c.2.1.4.19.61.29.64.29,1.28.56,1.94.79a5.7287,5.7287,0,0,0,.7.23,1.6127,1.6127,0,0,0,.35.12c.2.07.4.13.6.19.25.06.5.13.76.21.13.03.27.07.4.1a25.4709,25.4709,0,0,0,7.31.68c.14,0,.28-.01.43-.02.27-.02.54-.04.81-.07a24.6081,24.6081,0,0,0,3.65-.61q.75-.18,1.5-.42a2.24,2.24,0,0,0,.34-.11,3.6763,3.6763,0,0,0,.47-.15,1.9452,1.9452,0,0,0,.22-.08c.38-.13.75-.28,1.11-.42.39-.15.78-.32,1.16-.5a.0367.0367,0,0,1,.03-.01c.38-.17.75-.36,1.12-.56.38-.19.75-.41,1.12-.62a25.53,25.53,0,0,0,6.95-5.98.138.138,0,0,1,.03-.04c.28-.34.54-.67.78-1.02a23.262,23.262,0,0,0,1.38-2.07c.06-.1.12-.21.18-.31a7.5509,7.5509,0,0,0,.37-.69,24.7482,24.7482,0,0,0,2.05-4.95c.09-.32.18-.64.26-.98.03-.09.05-.2.08-.31a24.62,24.62,0,0,0,.56-3.22Z" transform="translate(-82.195 -82.645)"/></svg>